<?xml version="1.0" standalone="no"?>
<svg xmlns:xlink="http://www.w3.org/1999/xlink" id="wave" style="transform:rotate(0deg); transition: 0.3s" viewBox="0 0 1440 250" version="1.1" xmlns="http://www.w3.org/2000/svg"><defs><linearGradient id="sw-gradient-0" x1="0" x2="0" y1="1" y2="0"><stop stop-color="rgba(18, 79, 136, 1)" offset="0%"/><stop stop-color="rgba(18, 79, 136, 1)" offset="100%"/></linearGradient></defs><path style="transform:translate(0, 0px); opacity:1" fill="url(#sw-gradient-0)" d="M0,0L60,25C120,50,240,100,360,120.8C480,142,600,133,720,133.3C840,133,960,142,1080,150C1200,158,1320,167,1440,179.2C1560,192,1680,208,1800,183.3C1920,158,2040,92,2160,70.8C2280,50,2400,75,2520,95.8C2640,117,2760,133,2880,154.2C3000,175,3120,200,3240,200C3360,200,3480,175,3600,145.8C3720,117,3840,83,3960,91.7C4080,100,4200,150,4320,170.8C4440,192,4560,183,4680,183.3C4800,183,4920,192,5040,166.7C5160,142,5280,83,5400,54.2C5520,25,5640,25,5760,33.3C5880,42,6000,58,6120,91.7C6240,125,6360,175,6480,187.5C6600,200,6720,175,6840,162.5C6960,150,7080,150,7200,150C7320,150,7440,150,7560,125C7680,100,7800,50,7920,58.3C8040,67,8160,133,8280,150C8400,167,8520,133,8580,116.7L8640,100L8640,250L8580,250C8520,250,8400,250,8280,250C8160,250,8040,250,7920,250C7800,250,7680,250,7560,250C7440,250,7320,250,7200,250C7080,250,6960,250,6840,250C6720,250,6600,250,6480,250C6360,250,6240,250,6120,250C6000,250,5880,250,5760,250C5640,250,5520,250,5400,250C5280,250,5160,250,5040,250C4920,250,4800,250,4680,250C4560,250,4440,250,4320,250C4200,250,4080,250,3960,250C3840,250,3720,250,3600,250C3480,250,3360,250,3240,250C3120,250,3000,250,2880,250C2760,250,2640,250,2520,250C2400,250,2280,250,2160,250C2040,250,1920,250,1800,250C1680,250,1560,250,1440,250C1320,250,1200,250,1080,250C960,250,840,250,720,250C600,250,480,250,360,250C240,250,120,250,60,250L0,250Z"/></svg>